<svg width="24" height="24" viewBox="0 0 24 24" fill="none" xmlns="http://www.w3.org/2000/svg">
<path d="M7.06089 22C8.58389 22 9.90089 21.457 10.9709 20.387C12.0939 19.264 12.6779 17.533 12.5219 15.893L21.0859 7.32903C21.6705 6.74319 21.9987 5.94925 21.9983 5.12162C21.9979 4.29398 21.669 3.50033 21.0839 2.91503C19.9059 1.73503 17.8499 1.73503 16.6719 2.91503L7.78789 11.799C5.87489 11.968 3.98089 13.32 3.98089 15.718C3.98089 16.021 4.00189 16.306 4.02289 16.578C4.10289 17.609 4.13189 17.996 2.55189 18.786C2.39647 18.8637 2.26395 18.9805 2.16741 19.1249C2.07086 19.2693 2.01361 19.4364 2.00129 19.6097C1.98898 19.783 2.02203 19.9566 2.09718 20.1132C2.17234 20.2698 2.28701 20.4042 2.42989 20.503C2.51989 20.563 4.62289 22 7.06089 22C7.05955 22 7.05955 22 7.06089 22ZM18.0859 4.32803C18.2993 4.12334 18.5836 4.00921 18.8793 4.00958C19.175 4.00995 19.459 4.1248 19.6719 4.33003C19.7759 4.43403 19.8584 4.55751 19.9147 4.6934C19.971 4.82929 20 4.97494 20 5.12203C20 5.26912 19.971 5.41477 19.9147 5.55066C19.8584 5.68655 19.7759 5.81003 19.6719 5.91403L11.9999 13.586L10.4139 12L18.0859 4.32803ZM6.01789 16.423C5.99989 16.199 5.98089 15.965 5.98089 15.717C5.98089 14.172 7.42589 13.764 8.19089 13.764C8.54689 13.764 8.88989 13.837 9.15489 13.97C10.0999 14.445 10.4149 15.263 10.5119 15.866C10.6889 16.956 10.2949 18.234 9.55589 18.973C8.86489 19.664 8.04889 20 7.06089 20C6.31089 20 5.58089 19.804 4.98589 19.573C6.06789 18.6 6.10689 17.584 6.01789 16.423Z" fill="#CCCCCC"/>
</svg>
