<svg width="38" height="39" viewBox="0 0 38 39" fill="none" xmlns="http://www.w3.org/2000/svg">
<path d="M31.7148 25.0901C31.6046 25.2005 31.4736 25.2881 31.3294 25.3479C31.1853 25.4076 31.0307 25.4384 30.8747 25.4384C30.7186 25.4384 30.5641 25.4076 30.4199 25.3479C30.2758 25.2881 30.1448 25.2005 30.0345 25.0901L18.9997 14.0538L7.96484 25.0901C7.74202 25.3129 7.4398 25.4381 7.12468 25.4381C6.80956 25.4381 6.50735 25.3129 6.28453 25.0901C6.0617 24.8673 5.93652 24.5651 5.93652 24.25C5.93652 23.9348 6.0617 23.6326 6.28453 23.4098L18.1595 11.5348C18.2698 11.4244 18.4008 11.3368 18.5449 11.277C18.6891 11.2173 18.8436 11.1865 18.9997 11.1865C19.1557 11.1865 19.3103 11.2173 19.4544 11.277C19.5986 11.3368 19.7296 11.4244 19.8398 11.5348L31.7148 23.4098C31.8253 23.5201 31.9128 23.6511 31.9726 23.7952C32.0324 23.9394 32.0631 24.0939 32.0631 24.25C32.0631 24.406 32.0324 24.5605 31.9726 24.7047C31.9128 24.8489 31.8253 24.9798 31.7148 25.0901Z" fill="#CCCCCC"/>
</svg>
