<svg width="20" height="19" viewBox="0 0 20 19" fill="none" xmlns="http://www.w3.org/2000/svg">
<path d="M1.54815 14.8962L1.54822 14.8962L7.20822 12.1342L7.2083 12.1342C7.58268 11.9518 7.80155 11.6651 7.86715 11.3561C7.93272 11.0472 7.84939 10.696 7.57936 10.3757L1.54815 14.8962ZM1.54815 14.8962C1.20945 15.0617 0.911555 15.3587 0.698762 15.6996C0.48597 16.0404 0.35 16.4383 0.35 16.815V17.5C0.35 17.805 0.47116 18.0975 0.686827 18.3132C0.902494 18.5288 1.195 18.65 1.5 18.65H18.5C18.805 18.65 19.0975 18.5288 19.3132 18.3132C19.5288 18.0975 19.65 17.805 19.65 17.5V16.815C19.65 16.4359 19.5138 16.0379 19.3008 15.6976C19.0877 15.3574 18.7898 15.0621 18.4518 14.8972L12.7918 12.1352L12.7917 12.1352C12.4154 11.9518 12.1974 11.6645 12.1327 11.3556C12.068 11.0466 12.1525 10.6956 12.4216 10.3768L12.4217 10.3767L12.7827 9.94871L12.7827 9.94864C13.1634 9.49675 13.5039 8.85424 13.7494 8.18421C13.9947 7.5142 14.15 6.80294 14.15 6.21V4.5C14.15 3.39935 13.7128 2.34378 12.9345 1.56551C12.1562 0.787231 11.1006 0.35 10 0.35C8.89935 0.35 7.84378 0.787231 7.06551 1.56551C6.28723 2.34378 5.85 3.39935 5.85 4.5V6.21C5.85 6.80283 6.0042 7.51281 6.24914 8.18205C6.49407 8.8513 6.83468 9.49334 7.21736 9.94674C7.21736 9.94674 7.21737 9.94675 7.21737 9.94675L7.57933 10.3757L1.54815 14.8962ZM18.15 16.815V17.15H1.85V16.815C1.85 16.7435 1.89219 16.6208 1.97113 16.4943C2.0501 16.3677 2.14163 16.2761 2.20575 16.2448L2.20578 16.2448L7.86577 13.4828C7.86578 13.4828 7.86578 13.4828 7.86578 13.4828C9.4784 12.6961 9.88468 10.7822 8.72483 9.40849C8.72475 9.4084 8.72468 9.40831 8.7246 9.40822L8.3649 8.97958L8.3646 8.97922C8.10306 8.66952 7.848 8.18476 7.6581 7.6664C7.46818 7.14801 7.35 6.61393 7.35 6.21V4.50016C7.35075 3.79752 7.63021 3.12388 8.12704 2.62704C8.62388 2.13021 9.29753 1.85075 10.0002 1.85C11.4632 1.85009 12.65 3.03786 12.65 4.5V6.211C12.65 6.61386 12.5314 7.14892 12.3411 7.66843C12.1509 8.18791 11.8959 8.67362 11.6354 8.98225L11.6352 8.98245L11.2753 9.41029C11.2753 9.41034 11.2753 9.41039 11.2752 9.41045C10.1185 10.7819 10.5192 12.6969 12.1342 13.4848L12.1343 13.4848L17.7942 16.2448C17.7942 16.2448 17.7943 16.2448 17.7943 16.2448C17.8598 16.2768 17.9513 16.3681 18.0296 16.4936C18.108 16.619 18.15 16.7416 18.15 16.815Z" fill="#C3C0CF" stroke="#C3C0CF" stroke-width="0.3"/>
</svg>
