<svg width="38" height="39" viewBox="0 0 38 39" fill="none" xmlns="http://www.w3.org/2000/svg">
<path d="M6.28516 13.9099C6.39545 13.7995 6.52642 13.7119 6.67058 13.6521C6.81474 13.5924 6.96926 13.5616 7.12532 13.5616C7.28137 13.5616 7.4359 13.5924 7.58006 13.6521C7.72422 13.7119 7.85519 13.7995 7.96547 13.9099L19.0003 24.9462L30.0352 13.9099C30.258 13.6871 30.5602 13.5619 30.8753 13.5619C31.1904 13.5619 31.4927 13.6871 31.7155 13.9099C31.9383 14.1327 32.0635 14.4349 32.0635 14.75C32.0635 15.0652 31.9383 15.3674 31.7155 15.5902L19.8405 27.4652C19.7302 27.5756 19.5992 27.6632 19.4551 27.723C19.3109 27.7827 19.1564 27.8135 19.0003 27.8135C18.8443 27.8135 18.6897 27.7827 18.5456 27.723C18.4014 27.6632 18.2704 27.5756 18.1602 27.4652L6.28516 15.5902C6.17475 15.4799 6.08716 15.3489 6.0274 15.2048C5.96764 15.0606 5.93688 14.9061 5.93688 14.75C5.93688 14.594 5.96764 14.4395 6.0274 14.2953C6.08716 14.1511 6.17475 14.0202 6.28516 13.9099Z" fill="#CCCCCC"/>
</svg>
