<svg width="38" height="38" viewBox="0 0 38 38" fill="none" xmlns="http://www.w3.org/2000/svg">
<g clip-path="url(#clip0_229_298)">
<path d="M9.99846 9.77854C9.60263 8.76838 9.61846 7.61413 9.79421 6.55804C11.0038 6.92151 12.14 7.49498 13.1509 8.25221C13.5942 8.59104 14.1753 8.70029 14.7168 8.53721C16.1061 8.12052 17.5493 7.91137 18.9997 7.91654C20.5213 7.91654 21.9669 8.13821 23.2795 8.53563C23.821 8.70029 24.402 8.58946 24.8438 8.25063C25.8542 7.49356 26.9898 6.9201 28.1989 6.55646C28.3746 7.61254 28.3889 8.76679 27.9962 9.77538C27.7587 10.3834 27.8775 11.0832 28.3255 11.5804C29.4719 12.8518 30.083 14.3132 30.083 15.8332C30.083 19.1804 26.9639 22.4626 21.9542 23.4617C20.7002 23.7119 20.211 25.2905 21.1705 26.1945C21.7864 26.774 22.1664 27.591 22.1664 28.4999V33.2499C22.1664 33.6698 22.3332 34.0725 22.6301 34.3695C22.9271 34.6664 23.3298 34.8332 23.7497 34.8332C24.1696 34.8332 24.5724 34.6664 24.8693 34.3695C25.1662 34.0725 25.333 33.6698 25.333 33.2499V28.4999C25.333 27.5974 25.143 26.7392 24.8042 25.9618C29.5811 24.304 33.2497 20.5721 33.2497 15.8332C33.2497 13.7005 32.4834 11.7403 31.212 10.0984C31.5445 8.80004 31.5144 7.49221 31.3877 6.48838C31.2753 5.58904 31.1185 4.41104 30.4852 3.70804C29.5431 2.66463 27.9835 3.27896 26.8752 3.65738C25.6857 4.05831 24.5544 4.61465 23.5106 5.31196C22.0367 4.93525 20.521 4.74639 18.9997 4.74988C17.4259 4.74988 15.9075 4.94779 14.4856 5.31354C13.4419 4.61623 12.3106 4.05989 11.121 3.65896C10.0127 3.27896 8.45155 2.66463 7.50946 3.70804C6.86346 4.42371 6.72888 5.50829 6.6133 6.42979L6.60538 6.48996C6.47871 7.49538 6.45021 8.80479 6.78271 10.1047C5.51605 11.745 4.74971 13.702 4.74971 15.8332C4.74971 20.5705 8.41829 24.304 13.1952 25.9618C12.8501 26.7525 12.6701 27.6054 12.6664 28.4682L12.4004 28.522C11.2651 28.6788 10.5384 28.5379 10.0444 28.3289C8.84105 27.819 8.22038 26.535 7.46355 25.5533C6.99171 24.9437 6.30455 24.1821 5.25005 23.8306C5.05272 23.7649 4.84439 23.7387 4.63695 23.7535C4.4295 23.7683 4.227 23.8239 4.04101 23.9169C3.66539 24.1049 3.37983 24.4344 3.24713 24.8329C3.11443 25.2314 3.14548 25.6663 3.33344 26.0419C3.52139 26.4175 3.85087 26.7031 4.24938 26.8358C5.13288 27.1303 5.74405 28.644 6.30455 29.3153C6.89513 30.0246 7.68046 30.7656 8.80621 31.2438C9.88605 31.703 11.1543 31.866 12.6664 31.6808V33.2499C12.6664 33.6698 12.8332 34.0725 13.1301 34.3695C13.4271 34.6664 13.8298 34.8332 14.2497 34.8332C14.6696 34.8332 15.0724 34.6664 15.3693 34.3695C15.6662 34.0725 15.833 33.6698 15.833 33.2499V28.4999C15.833 27.591 16.213 26.774 16.829 26.1945C17.79 25.2889 17.2992 23.7119 16.0452 23.4617C11.034 22.4626 7.91638 19.1804 7.91638 15.8332C7.91638 14.3164 8.52596 12.855 9.67071 11.5835C10.1188 11.0864 10.236 10.3865 9.99846 9.77854Z" fill="#CCCCCC"/>
</g>
<defs>
<clipPath id="clip0_229_298">
<rect width="38" height="38" fill="white"/>
</clipPath>
</defs>
</svg>
