<svg width="20" height="21" viewBox="0 0 20 21" fill="none" xmlns="http://www.w3.org/2000/svg">
<path d="M18.0123 8.49991C18.0123 8.23469 17.9069 7.98034 17.7194 7.7928C17.5319 7.60527 17.2775 7.49991 17.0123 7.49991C16.7471 7.49991 16.4927 7.60527 16.3052 7.7928C16.1176 7.98034 16.0123 8.23469 16.0123 8.49991H18.0123ZM4.01229 8.49991C4.01229 8.23469 3.90693 7.98034 3.71939 7.7928C3.53186 7.60527 3.2775 7.49991 3.01229 7.49991C2.74707 7.49991 2.49272 7.60527 2.30518 7.7928C2.11765 7.98034 2.01229 8.23469 2.01229 8.49991H4.01229ZM18.3053 11.2069C18.4939 11.3891 18.7465 11.4899 19.0087 11.4876C19.2709 11.4853 19.5217 11.3801 19.7071 11.1947C19.8925 11.0093 19.9977 10.7585 20 10.4963C20.0022 10.2341 19.9014 9.98151 19.7193 9.79291L18.3053 11.2069ZM10.0123 1.49991L10.7193 0.792908C10.5318 0.605437 10.2775 0.500122 10.0123 0.500122C9.74712 0.500122 9.49282 0.605437 9.30529 0.792908L10.0123 1.49991ZM0.305288 9.79291C0.209778 9.88516 0.133596 9.9955 0.0811869 10.1175C0.0287779 10.2395 0.00119157 10.3707 3.77567e-05 10.5035C-0.00111606 10.6363 0.0241857 10.768 0.0744666 10.8909C0.124747 11.0138 0.199001 11.1254 0.292893 11.2193C0.386786 11.3132 0.498438 11.3874 0.621334 11.4377C0.744231 11.488 0.87591 11.5133 1.00869 11.5122C1.14147 11.511 1.27269 11.4834 1.39469 11.431C1.5167 11.3786 1.62704 11.3024 1.71929 11.2069L0.305288 9.79291ZM5.01229 20.4999H15.0123V18.4999H5.01229V20.4999ZM18.0123 17.4999V8.49991H16.0123V17.4999H18.0123ZM4.01229 17.4999V8.49991H2.01229V17.4999H4.01229ZM19.7193 9.79291L10.7193 0.792908L9.30529 2.20691L18.3053 11.2069L19.7193 9.79291ZM9.30529 0.792908L0.305288 9.79291L1.71929 11.2069L10.7193 2.20691L9.30529 0.792908ZM15.0123 20.4999C15.8079 20.4999 16.571 20.1838 17.1336 19.6212C17.6962 19.0586 18.0123 18.2956 18.0123 17.4999H16.0123C16.0123 17.7651 15.9069 18.0195 15.7194 18.207C15.5319 18.3946 15.2775 18.4999 15.0123 18.4999V20.4999ZM5.01229 18.4999C4.74707 18.4999 4.49272 18.3946 4.30518 18.207C4.11765 18.0195 4.01229 17.7651 4.01229 17.4999H2.01229C2.01229 18.2956 2.32836 19.0586 2.89097 19.6212C3.45358 20.1838 4.21664 20.4999 5.01229 20.4999V18.4999Z" fill="#C3C0CF"/>
</svg>
