<svg width="48" height="48" viewBox="0 0 48 48" fill="none" xmlns="http://www.w3.org/2000/svg">
<g clip-path="url(#clip0_229_292)">
<path d="M36 6C37.5913 6 39.1174 6.63214 40.2426 7.75736C41.3679 8.88258 42 10.4087 42 12V36C42 37.5913 41.3679 39.1174 40.2426 40.2426C39.1174 41.3679 37.5913 42 36 42H12C10.4087 42 8.88258 41.3679 7.75736 40.2426C6.63214 39.1174 6 37.5913 6 36V12C6 10.4087 6.63214 8.88258 7.75736 7.75736C8.88258 6.63214 10.4087 6 12 6H36ZM36 10H12C11.4696 10 10.9609 10.2107 10.5858 10.5858C10.2107 10.9609 10 11.4696 10 12V36C10 36.5304 10.2107 37.0391 10.5858 37.4142C10.9609 37.7893 11.4696 38 12 38H36C36.5304 38 37.0391 37.7893 37.4142 37.4142C37.7893 37.0391 38 36.5304 38 36V12C38 11.4696 37.7893 10.9609 37.4142 10.5858C37.0391 10.2107 36.5304 10 36 10ZM16 20C16.4899 20.0001 16.9627 20.1799 17.3287 20.5054C17.6948 20.8309 17.9287 21.2795 17.986 21.766L18 22V32C17.9994 32.5098 17.8042 33.0001 17.4543 33.3707C17.1044 33.7414 16.6261 33.9645 16.1172 33.9943C15.6083 34.0242 15.1072 33.8587 14.7163 33.5315C14.3254 33.2043 14.0742 32.7402 14.014 32.234L14 32V22C14 21.4696 14.2107 20.9609 14.5858 20.5858C14.9609 20.2107 15.4696 20 16 20ZM22 18C22.4684 17.9999 22.9219 18.1643 23.2816 18.4643C23.6412 18.7644 23.8842 19.1812 23.968 19.642C24.3708 19.4094 24.7869 19.2003 25.214 19.016C26.548 18.446 28.546 18.132 30.35 18.698C31.296 18.998 32.246 19.558 32.95 20.512C33.58 21.362 33.92 22.396 33.988 23.558L34 24V32C33.9994 32.5098 33.8042 33.0001 33.4543 33.3707C33.1044 33.7414 32.6261 33.9645 32.1172 33.9943C31.6083 34.0242 31.1072 33.8587 30.7163 33.5315C30.3254 33.2043 30.0742 32.7402 30.014 32.234L30 32V24C30 23.34 29.84 23.032 29.736 22.89C29.5865 22.7045 29.3809 22.5726 29.15 22.514C28.454 22.294 27.452 22.41 26.786 22.694C25.786 23.122 24.87 23.794 24.246 24.416L24 24.68V32C23.9994 32.5098 23.8042 33.0001 23.4543 33.3707C23.1044 33.7414 22.6261 33.9645 22.1172 33.9943C21.6083 34.0242 21.1072 33.8587 20.7163 33.5315C20.3254 33.2043 20.0742 32.7402 20.014 32.234L20 32V20C20 19.4696 20.2107 18.9609 20.5858 18.5858C20.9609 18.2107 21.4696 18 22 18ZM16 14C16.5304 14 17.0391 14.2107 17.4142 14.5858C17.7893 14.9609 18 15.4696 18 16C18 16.5304 17.7893 17.0391 17.4142 17.4142C17.0391 17.7893 16.5304 18 16 18C15.4696 18 14.9609 17.7893 14.5858 17.4142C14.2107 17.0391 14 16.5304 14 16C14 15.4696 14.2107 14.9609 14.5858 14.5858C14.9609 14.2107 15.4696 14 16 14Z" fill="#CCCCCC"/>
</g>
<defs>
<clipPath id="clip0_229_292">
<rect width="48" height="48" fill="white"/>
</clipPath>
</defs>
</svg>
