<svg width="28" height="29" viewBox="0 0 28 29" fill="none" xmlns="http://www.w3.org/2000/svg">
<path d="M24.5 9.25H19.25V5.75C19.25 5.28587 19.0656 4.84075 18.7374 4.51256C18.4092 4.18437 17.9641 4 17.5 4H10.5C10.0359 4 9.59075 4.18437 9.26256 4.51256C8.93437 4.84075 8.75 5.28587 8.75 5.75V9.25H3.5C3.03587 9.25 2.59075 9.43437 2.26256 9.76256C1.93437 10.0908 1.75 10.5359 1.75 11V23.25C1.75 23.7141 1.93437 24.1592 2.26256 24.4874C2.59075 24.8156 3.03587 25 3.5 25H24.5C24.9641 25 25.4092 24.8156 25.7374 24.4874C26.0656 24.1592 26.25 23.7141 26.25 23.25V11C26.25 10.5359 26.0656 10.0908 25.7374 9.76256C25.4092 9.43437 24.9641 9.25 24.5 9.25ZM10.5 5.75H17.5V9.25H10.5V5.75ZM3.5 23.25V11H24.5V23.25H3.5Z" fill="#CCCCCC"/>
</svg>
