<svg width="24" height="24" viewBox="0 0 24 24" fill="none" xmlns="http://www.w3.org/2000/svg">
<path d="M11.9999 22.9542C13.1255 22.9542 14.2401 22.7325 15.28 22.3018C16.32 21.871 17.2649 21.2397 18.0608 20.4437C18.8567 19.6478 19.4881 18.7029 19.9189 17.6629C20.3496 16.623 20.5713 15.5084 20.5713 14.3828V9.61709C20.5714 7.51141 19.7965 5.47936 18.3942 3.90852M3.42847 11.5199V14.3828C3.42789 16.0702 3.92536 17.7202 4.85852 19.126C5.79168 20.5318 7.11901 21.631 8.67418 22.2857M16.2856 2.19423C14.3169 1.05764 11.9774 0.749632 9.78162 1.33796C7.58585 1.92628 5.71372 3.36275 4.57704 5.33138C4.10871 6.13958 3.77847 7.02023 3.5999 7.93709" stroke="#CCCCCC" stroke-width="1.71429" stroke-linecap="round" stroke-linejoin="round"/>
<path d="M11.1085 6.01708C11.739 5.88618 12.3908 5.89847 13.0159 6.05305C13.6411 6.20762 14.2235 6.50053 14.7204 6.91018C15.2172 7.31984 15.6158 7.83579 15.8867 8.41999C16.1576 9.00419 16.2939 9.64175 16.2856 10.2857V13.0457M15.1885 16.6457C14.6052 17.2954 13.8374 17.7514 12.9878 17.9528C12.1382 18.1542 11.2474 18.0913 10.4345 17.7725C9.62168 17.4537 8.9256 16.8942 8.43944 16.1689C7.95328 15.4437 7.70023 14.5872 7.71417 13.7142V10.2857C7.70945 9.69673 7.82617 9.11317 8.05703 8.57136M11.9999 10.4742V13.3371" stroke="#CCCCCC" stroke-width="1.71429" stroke-linecap="round" stroke-linejoin="round"/>
</svg>
